<svg width="144" height="144" viewBox="0 0 144 144" fill="none" xmlns="http://www.w3.org/2000/svg">
<rect width="144" height="144" rx="19" fill="black"/>
<path d="M68.9931 9.51308C62.6289 12.9113 60.7326 13.8787 55.875 16.1607C45.1986 21.1961 33.7949 25.4377 22.1054 28.7367C17.9752 29.8777 17.1959 30.1754 16.5724 30.8451L15.8451 31.6141L15.949 49.7463C16.0269 65.0756 16.1049 68.3498 16.4945 70.7559C18.5726 84.448 23.0406 95.4117 30.8336 106.003C40.0033 118.48 55.2256 129.989 67.9021 134.057C72.3701 135.496 75.6172 135.025 82.1633 132.073C94.0346 126.74 106.244 116.793 114.166 106.003C121.959 95.4117 126.427 84.448 128.505 70.7559C128.895 68.3498 128.973 65.0756 129.051 49.7463L129.155 31.6141L128.428 30.8451C127.804 30.1754 127.025 29.8777 122.895 28.7367C107.049 24.2719 92.3721 18.2691 75.7471 9.38906C74.3183 8.62012 72.8637 8 72.5 8C72.1363 8 70.5517 8.69453 68.9931 9.51308ZM77.2537 16.2848C91.359 23.6518 105.568 29.332 121.024 33.7969L123.674 34.5658V47.6379C123.674 54.8312 123.544 62.5455 123.414 64.8027C122.167 83.952 114.166 100.546 99.8793 113.643C92.2681 120.638 83.9556 125.921 76.3445 128.65C73.0455 129.816 71.9545 129.816 68.6554 128.65C61.0443 125.921 52.7318 120.638 45.1207 113.643C30.8336 100.546 22.8328 83.952 21.5859 64.8027C21.456 62.5455 21.3261 54.8312 21.3261 47.6379V34.5658L24.0017 33.7969C28.8334 32.4078 37.4836 29.5553 41.7178 27.9678C50.4459 24.6936 61.4599 19.7326 68.8633 15.7143C70.6556 14.7469 72.2662 13.9531 72.448 13.9531C72.6558 13.9531 74.8119 14.9949 77.2537 16.2848Z" fill="white"/>
<path d="M52.3162 29.5057C51.5629 29.6545 50.4978 30.6963 50.342 31.4652C50.1601 32.4822 50.6277 33.7473 51.381 34.2186C52.2383 34.7643 53.7709 34.7395 54.6541 34.1689C56.3166 33.1271 56.0308 30.4234 54.2125 29.7041C53.693 29.5057 53.1994 29.3568 53.0955 29.3568C52.9916 29.3816 52.6279 29.4561 52.3162 29.5057Z" fill="white"/>
<path d="M43.9258 32.7799C43.5621 32.9039 41.406 33.6729 39.1201 34.4666C36.8342 35.2852 33.4572 36.451 31.6129 37.0215C29.6387 37.6416 28.0021 38.3113 27.6644 38.6338C26.8592 39.4027 26.7293 40.5934 26.8332 46.4473C26.9111 50.8129 26.989 51.6315 27.3787 52.1772C28.2099 53.3678 29.6127 53.6902 30.9635 52.9957C32.2883 52.3508 32.4961 51.4578 32.4961 46.6209V42.3297L34.3924 41.7592C39.6916 40.1469 46.3676 37.6168 47.0949 36.9471C49.1211 35.0123 46.7312 31.8869 43.9258 32.7799Z" fill="white"/>
<path d="M102.867 94.0722C102.633 94.1963 101.646 95.3869 100.659 96.7015C97.1257 101.464 93.0214 105.656 88.008 109.65C85.3843 111.758 84.8648 112.403 84.9167 113.569C84.9687 114.71 85.3324 115.33 86.3195 115.801C87.6443 116.471 88.5794 116.099 91.6447 113.693C98.1648 108.608 107.049 98.6859 107.049 96.5031C107.049 95.4861 106.373 94.3451 105.594 94.0722C104.763 93.7498 103.412 93.7746 102.867 94.0722Z" fill="white"/>
<path d="M79.6175 115.404C77.9031 116.074 77.4355 118.306 78.7083 119.671C80.7345 121.854 84.5011 119.497 83.3062 116.818C82.7347 115.454 81.0722 114.834 79.6175 115.404Z" fill="white"/>
<path d="M64.1 89.894C64.692 90.486 65.4567 91.004 66.394 91.448C67.3313 91.8427 68.7373 92.04 70.612 92.04C72.1907 92.04 73.6707 91.8427 75.052 91.448C76.4333 91.004 77.6173 90.3873 78.604 89.598C79.64 88.7593 80.454 87.7727 81.046 86.638C81.638 85.454 81.934 84.122 81.934 82.642C81.934 80.6687 81.3173 79.016 80.084 77.684C78.9 76.352 77.3953 75.168 75.57 74.132C73.794 73.096 71.8453 72.0847 69.724 71.098C67.6027 70.1113 65.6293 68.952 63.804 67.62C62.028 66.2387 60.5233 64.6107 59.29 62.736C58.106 60.812 57.514 58.4193 57.514 55.558C57.514 53.486 57.884 51.636 58.624 50.008C59.364 48.38 60.4 46.9987 61.732 45.864C63.1133 44.7293 64.7413 43.866 66.616 43.274C68.4907 42.6327 70.5873 42.312 72.906 42.312C75.9153 42.312 78.6533 42.5587 81.12 43.052C83.636 43.496 85.6093 44.0633 87.04 44.754C87.04 45.5927 86.966 46.5793 86.818 47.714C86.7193 48.7993 86.5713 49.934 86.374 51.118C86.226 52.302 86.0533 53.4613 85.856 54.596C85.6587 55.6813 85.4613 56.6433 85.264 57.482H83.34L80.38 47.344C79.492 46.9493 78.3573 46.6533 76.976 46.456C75.644 46.2587 74.2133 46.16 72.684 46.16C70.168 46.16 68.1453 46.8753 66.616 48.306C65.0867 49.6873 64.322 51.636 64.322 54.152C64.322 56.1747 64.914 57.8767 66.098 59.258C67.3313 60.6393 68.8607 61.8727 70.686 62.958C72.5113 64.0433 74.46 65.104 76.532 66.14C78.6533 67.1267 80.6267 68.286 82.452 69.618C84.2773 70.95 85.782 72.5287 86.966 74.354C88.1993 76.1793 88.816 78.4487 88.816 81.162C88.816 83.382 88.3967 85.4047 87.558 87.23C86.7687 89.0553 85.6093 90.6093 84.08 91.892C82.5507 93.1747 80.676 94.1613 78.456 94.852C76.236 95.5427 73.72 95.888 70.908 95.888C67.8 95.888 65.0127 95.518 62.546 94.778C60.0793 94.038 58.328 93.2487 57.292 92.41C57.3413 91.5713 57.4153 90.56 57.514 89.376C57.662 88.192 57.81 86.9833 57.958 85.75C58.1553 84.4673 58.3527 83.234 58.55 82.05C58.7473 80.866 58.9447 79.8547 59.142 79.016H61.066L64.1 89.894Z" fill="white"/>
</svg>
